<mxfile host="app.diagrams.net" modified="2022-06-08T20:40:07.515Z" agent="5.0 (Windows)" etag="2skP8BleRCactIAWCYdN" version="19.0.2" type="github" pages="3">
  <diagram id="5mHl_DfRaOdTdISOUurZ" name="Página de login">
    <mxGraphModel dx="1422" dy="772" grid="1" gridSize="10" guides="1" tooltips="1" connect="1" arrows="1" fold="1" page="1" pageScale="1" pageWidth="827" pageHeight="1169" math="0" shadow="0">
      <root>
        <mxCell id="0" />
        <mxCell id="1" parent="0" />
        <mxCell id="MkrI1mIVBfb76sjJDGzC-1" value="" style="rounded=0;whiteSpace=wrap;html=1;" parent="1" vertex="1">
          <mxGeometry x="130" y="140" width="500" height="280" as="geometry" />
        </mxCell>
        <mxCell id="MkrI1mIVBfb76sjJDGzC-2" value="Página de login" style="text;html=1;strokeColor=none;fillColor=none;align=center;verticalAlign=middle;whiteSpace=wrap;rounded=0;" parent="1" vertex="1">
          <mxGeometry x="130" y="110" width="120" height="30" as="geometry" />
        </mxCell>
        <mxCell id="MkrI1mIVBfb76sjJDGzC-4" value="" style="rounded=1;whiteSpace=wrap;html=1;" parent="1" vertex="1">
          <mxGeometry x="292.5" y="190" width="175" height="180" as="geometry" />
        </mxCell>
        <mxCell id="MkrI1mIVBfb76sjJDGzC-5" value="Nome do jogo" style="text;html=1;strokeColor=none;fillColor=none;align=center;verticalAlign=middle;whiteSpace=wrap;rounded=0;" parent="1" vertex="1">
          <mxGeometry x="340" y="190" width="80" height="30" as="geometry" />
        </mxCell>
        <mxCell id="MkrI1mIVBfb76sjJDGzC-7" value="&lt;div align=&quot;left&quot;&gt;usr:&lt;/div&gt;" style="text;html=1;strokeColor=none;fillColor=none;align=left;verticalAlign=middle;whiteSpace=wrap;rounded=0;" parent="1" vertex="1">
          <mxGeometry x="300" y="240" width="60" height="30" as="geometry" />
        </mxCell>
        <mxCell id="MkrI1mIVBfb76sjJDGzC-8" value="passwd: " style="text;html=1;strokeColor=none;fillColor=none;align=left;verticalAlign=middle;whiteSpace=wrap;rounded=0;" parent="1" vertex="1">
          <mxGeometry x="300" y="280" width="60" height="30" as="geometry" />
        </mxCell>
        <mxCell id="MkrI1mIVBfb76sjJDGzC-9" value="" style="rounded=1;whiteSpace=wrap;html=1;fillColor=#99CCFF;strokeColor=#000000;" parent="1" vertex="1">
          <mxGeometry x="360" y="240" width="100" height="30" as="geometry" />
        </mxCell>
        <mxCell id="MkrI1mIVBfb76sjJDGzC-10" value="" style="rounded=1;whiteSpace=wrap;html=1;fillColor=#99CCFF;strokeColor=#000000;" parent="1" vertex="1">
          <mxGeometry x="360" y="280" width="100" height="30" as="geometry" />
        </mxCell>
        <mxCell id="MkrI1mIVBfb76sjJDGzC-11" value="Login" style="rounded=1;whiteSpace=wrap;html=1;fillColor=#99CCFF;" parent="1" vertex="1">
          <mxGeometry x="345" y="330" width="70" height="30" as="geometry" />
        </mxCell>
      </root>
    </mxGraphModel>
  </diagram>
  <diagram id="PE-srq49pf82Up-gMHwE" name="Página de personagem">
    <mxGraphModel dx="1422" dy="772" grid="1" gridSize="10" guides="1" tooltips="1" connect="1" arrows="1" fold="1" page="1" pageScale="1" pageWidth="827" pageHeight="1169" math="0" shadow="0">
      <root>
        <mxCell id="0" />
        <mxCell id="1" parent="0" />
        <mxCell id="Dlkij1Drjg5ITdtM1rGm-1" value="" style="rounded=0;whiteSpace=wrap;html=1;strokeColor=#000000;fillColor=#FFFFFF;" parent="1" vertex="1">
          <mxGeometry x="120" y="210" width="470" height="450" as="geometry" />
        </mxCell>
        <mxCell id="Dlkij1Drjg5ITdtM1rGm-3" value="Página inicial: Informações do personagem" style="text;html=1;strokeColor=none;fillColor=none;align=center;verticalAlign=middle;whiteSpace=wrap;rounded=0;" parent="1" vertex="1">
          <mxGeometry x="120" y="170" width="280" height="30" as="geometry" />
        </mxCell>
        <mxCell id="Dlkij1Drjg5ITdtM1rGm-5" value="Nome do personagem" style="rounded=0;whiteSpace=wrap;html=1;strokeColor=#000000;fillColor=#FFFF99;" parent="1" vertex="1">
          <mxGeometry x="125" y="260" width="130" height="30" as="geometry" />
        </mxCell>
        <mxCell id="Dlkij1Drjg5ITdtM1rGm-7" value="" style="endArrow=none;html=1;rounded=0;" parent="1" edge="1">
          <mxGeometry width="50" height="50" relative="1" as="geometry">
            <mxPoint x="120" y="290" as="sourcePoint" />
            <mxPoint x="590" y="290" as="targetPoint" />
          </mxGeometry>
        </mxCell>
        <mxCell id="Dlkij1Drjg5ITdtM1rGm-8" value="" style="endArrow=none;html=1;rounded=0;" parent="1" edge="1">
          <mxGeometry width="50" height="50" relative="1" as="geometry">
            <mxPoint x="259.71" y="290" as="sourcePoint" />
            <mxPoint x="259.71" y="210" as="targetPoint" />
          </mxGeometry>
        </mxCell>
        <mxCell id="Dlkij1Drjg5ITdtM1rGm-9" value="Imagem" style="ellipse;whiteSpace=wrap;html=1;aspect=fixed;strokeColor=#000000;fillColor=#FFFF99;" parent="1" vertex="1">
          <mxGeometry x="165" y="210" width="50" height="50" as="geometry" />
        </mxCell>
        <mxCell id="Dlkij1Drjg5ITdtM1rGm-12" value="Imagem do personagem " style="rounded=0;whiteSpace=wrap;html=1;strokeColor=#000000;fillColor=#FFFF99;" parent="1" vertex="1">
          <mxGeometry x="130" y="330" width="120" height="140" as="geometry" />
        </mxCell>
        <mxCell id="Dlkij1Drjg5ITdtM1rGm-13" value="Nome do personagem" style="rounded=0;whiteSpace=wrap;html=1;strokeColor=#000000;fillColor=#FFFF99;" parent="1" vertex="1">
          <mxGeometry x="260" y="330" width="300" height="40" as="geometry" />
        </mxCell>
        <mxCell id="Dlkij1Drjg5ITdtM1rGm-14" value="Descrição do personagem" style="rounded=0;whiteSpace=wrap;html=1;strokeColor=#000000;fillColor=#FFFF99;" parent="1" vertex="1">
          <mxGeometry x="260" y="430" width="300" height="130" as="geometry" />
        </mxCell>
        <mxCell id="Dlkij1Drjg5ITdtM1rGm-15" value="Atributos do personagem" style="rounded=0;whiteSpace=wrap;html=1;strokeColor=#000000;fillColor=#FFFF99;" parent="1" vertex="1">
          <mxGeometry x="130" y="480" width="120" height="80" as="geometry" />
        </mxCell>
        <mxCell id="Dlkij1Drjg5ITdtM1rGm-16" value="&lt;div&gt;Personagem atual:&lt;br&gt;&lt;/div&gt;" style="text;html=1;strokeColor=none;fillColor=none;align=left;verticalAlign=middle;whiteSpace=wrap;rounded=0;" parent="1" vertex="1">
          <mxGeometry x="130" y="300" width="180" height="30" as="geometry" />
        </mxCell>
        <mxCell id="Dlkij1Drjg5ITdtM1rGm-17" value="Selecionar novo personagem:" style="text;html=1;strokeColor=none;fillColor=none;align=left;verticalAlign=middle;whiteSpace=wrap;rounded=0;" parent="1" vertex="1">
          <mxGeometry x="130" y="570" width="180" height="30" as="geometry" />
        </mxCell>
        <mxCell id="Dlkij1Drjg5ITdtM1rGm-18" value="Nível do personagem" style="rounded=0;whiteSpace=wrap;html=1;strokeColor=#000000;fillColor=#FFFF99;" parent="1" vertex="1">
          <mxGeometry x="260" y="380" width="160" height="40" as="geometry" />
        </mxCell>
        <mxCell id="Dlkij1Drjg5ITdtM1rGm-19" value="Vidas do personagem" style="rounded=0;whiteSpace=wrap;html=1;strokeColor=#000000;fillColor=#FFFF99;" parent="1" vertex="1">
          <mxGeometry x="430" y="380" width="130" height="40" as="geometry" />
        </mxCell>
        <mxCell id="Dlkij1Drjg5ITdtM1rGm-20" value="Seleção (tipo drop list) com o nome de todos os personagens do jogador" style="rounded=1;whiteSpace=wrap;html=1;strokeColor=#000000;fillColor=#99CCFF;" parent="1" vertex="1">
          <mxGeometry x="310" y="570" width="250" height="30" as="geometry" />
        </mxCell>
        <mxCell id="Dlkij1Drjg5ITdtM1rGm-21" value="Novo personagem" style="rounded=1;whiteSpace=wrap;html=1;strokeColor=#000000;fillColor=#99CCFF;" parent="1" vertex="1">
          <mxGeometry x="140" y="610" width="150" height="30" as="geometry" />
        </mxCell>
        <mxCell id="Dlkij1Drjg5ITdtM1rGm-23" value="Personagens" style="text;html=1;strokeColor=#6c8ebf;fillColor=#dae8fc;align=center;verticalAlign=middle;whiteSpace=wrap;rounded=0;" parent="1" vertex="1">
          <mxGeometry x="270" y="230" width="90" height="30" as="geometry" />
        </mxCell>
        <mxCell id="Dlkij1Drjg5ITdtM1rGm-25" value="Missões" style="text;html=1;strokeColor=#6c8ebf;fillColor=#dae8fc;align=center;verticalAlign=middle;whiteSpace=wrap;rounded=0;" parent="1" vertex="1">
          <mxGeometry x="380" y="230" width="90" height="30" as="geometry" />
        </mxCell>
        <mxCell id="Dlkij1Drjg5ITdtM1rGm-26" value="" style="endArrow=classic;html=1;rounded=0;entryX=0.652;entryY=0.025;entryDx=0;entryDy=0;entryPerimeter=0;" parent="1" target="Dlkij1Drjg5ITdtM1rGm-25" edge="1">
          <mxGeometry width="50" height="50" relative="1" as="geometry">
            <mxPoint x="600" y="170" as="sourcePoint" />
            <mxPoint x="610" y="160" as="targetPoint" />
          </mxGeometry>
        </mxCell>
        <mxCell id="Dlkij1Drjg5ITdtM1rGm-29" value="Menu para circulação no site" style="shape=document;whiteSpace=wrap;html=1;boundedLbl=1;strokeColor=#000000;fillColor=#FFFFFF;" parent="1" vertex="1">
          <mxGeometry x="610" y="130" width="120" height="80" as="geometry" />
        </mxCell>
        <mxCell id="Dlkij1Drjg5ITdtM1rGm-30" value="Logout" style="text;html=1;strokeColor=#6c8ebf;fillColor=#dae8fc;align=center;verticalAlign=middle;whiteSpace=wrap;rounded=0;" parent="1" vertex="1">
          <mxGeometry x="490" y="230" width="90" height="30" as="geometry" />
        </mxCell>
        <mxCell id="Dlkij1Drjg5ITdtM1rGm-31" value="" style="endArrow=classic;html=1;rounded=0;entryX=0.094;entryY=-0.005;entryDx=0;entryDy=0;entryPerimeter=0;" parent="1" edge="1">
          <mxGeometry width="50" height="50" relative="1" as="geometry">
            <mxPoint x="361.53999999999996" y="150.07" as="sourcePoint" />
            <mxPoint x="219.9999999999998" y="219.92000000000002" as="targetPoint" />
          </mxGeometry>
        </mxCell>
        <mxCell id="Dlkij1Drjg5ITdtM1rGm-32" value="Sempre aparece nome e imagem do personagem selecionado" style="shape=document;whiteSpace=wrap;html=1;boundedLbl=1;strokeColor=#000000;fillColor=#FFFFFF;" parent="1" vertex="1">
          <mxGeometry x="391.54" y="120.07" width="148.46" height="80" as="geometry" />
        </mxCell>
        <mxCell id="Dlkij1Drjg5ITdtM1rGm-33" value="" style="endArrow=classic;html=1;rounded=0;entryX=0.094;entryY=-0.005;entryDx=0;entryDy=0;entryPerimeter=0;" parent="1" edge="1">
          <mxGeometry width="50" height="50" relative="1" as="geometry">
            <mxPoint x="681.54" y="530" as="sourcePoint" />
            <mxPoint x="519.9999999999998" y="589.85" as="targetPoint" />
          </mxGeometry>
        </mxCell>
        <mxCell id="Dlkij1Drjg5ITdtM1rGm-34" value="Muda o personagem" style="shape=document;whiteSpace=wrap;html=1;boundedLbl=1;strokeColor=#000000;fillColor=#FFFFFF;" parent="1" vertex="1">
          <mxGeometry x="691.54" y="490" width="120" height="80" as="geometry" />
        </mxCell>
        <mxCell id="Dlkij1Drjg5ITdtM1rGm-35" value="" style="endArrow=classic;html=1;rounded=0;" parent="1" target="Dlkij1Drjg5ITdtM1rGm-21" edge="1">
          <mxGeometry width="50" height="50" relative="1" as="geometry">
            <mxPoint x="490.76999999999975" y="650" as="sourcePoint" />
            <mxPoint x="329.2299999999998" y="709.8499999999999" as="targetPoint" />
          </mxGeometry>
        </mxCell>
        <mxCell id="Dlkij1Drjg5ITdtM1rGm-36" value="Vai para página de criação de personagens" style="shape=document;whiteSpace=wrap;html=1;boundedLbl=1;strokeColor=#000000;fillColor=#FFFFFF;" parent="1" vertex="1">
          <mxGeometry x="500.77" y="610" width="120" height="80" as="geometry" />
        </mxCell>
        <mxCell id="Dlkij1Drjg5ITdtM1rGm-38" value="A criação de personagens é um formulário simples para submeter e receber sim/não para cada " style="shape=document;whiteSpace=wrap;html=1;boundedLbl=1;strokeColor=#000000;fillColor=#FFFFFF;" parent="1" vertex="1">
          <mxGeometry x="571.54" y="660" width="218.46" height="120" as="geometry" />
        </mxCell>
      </root>
    </mxGraphModel>
  </diagram>
  <diagram id="vDLv_tz-6pCkkCvrAlX0" name="Página de missões">
    <mxGraphModel dx="1422" dy="772" grid="1" gridSize="10" guides="1" tooltips="1" connect="1" arrows="1" fold="1" page="1" pageScale="1" pageWidth="827" pageHeight="1169" math="0" shadow="0">
      <root>
        <mxCell id="0" />
        <mxCell id="1" parent="0" />
        <mxCell id="NXLoVm3FzmLXaFAZ10uA-2" value="" style="rounded=0;whiteSpace=wrap;html=1;strokeColor=#000000;fillColor=#FFFFFF;" parent="1" vertex="1">
          <mxGeometry x="150" y="140" width="460" height="500" as="geometry" />
        </mxCell>
        <mxCell id="NXLoVm3FzmLXaFAZ10uA-4" value="" style="endArrow=none;html=1;rounded=0;" parent="1" edge="1">
          <mxGeometry width="50" height="50" relative="1" as="geometry">
            <mxPoint x="150" y="190" as="sourcePoint" />
            <mxPoint x="610" y="190" as="targetPoint" />
          </mxGeometry>
        </mxCell>
        <mxCell id="NXLoVm3FzmLXaFAZ10uA-5" value="&amp;lt;Mesmo cabeçalho anterior&amp;gt;" style="text;html=1;strokeColor=none;fillColor=none;align=center;verticalAlign=middle;whiteSpace=wrap;rounded=0;" parent="1" vertex="1">
          <mxGeometry x="250" y="150" width="200" height="30" as="geometry" />
        </mxCell>
        <mxCell id="NXLoVm3FzmLXaFAZ10uA-6" value="Lista com o nome e&amp;nbsp; as primeiras palavras (ou o suficiente para cobrir uma linha) das descrições das missões. O usuário clica em uma missão para destacá-la e isso faz com que a parte de baixo mude para exibir detalhes da missão" style="rounded=1;whiteSpace=wrap;html=1;strokeColor=#000000;fillColor=#99CCFF;" parent="1" vertex="1">
          <mxGeometry x="170" y="240" width="420" height="100" as="geometry" />
        </mxCell>
        <mxCell id="NXLoVm3FzmLXaFAZ10uA-7" value="Lista de missões" style="text;html=1;strokeColor=none;fillColor=none;align=center;verticalAlign=middle;whiteSpace=wrap;rounded=0;" parent="1" vertex="1">
          <mxGeometry x="160" y="210" width="130" height="30" as="geometry" />
        </mxCell>
        <mxCell id="NXLoVm3FzmLXaFAZ10uA-8" value="Missão selecionada" style="text;html=1;strokeColor=none;fillColor=none;align=center;verticalAlign=middle;whiteSpace=wrap;rounded=0;" parent="1" vertex="1">
          <mxGeometry x="160" y="350" width="140" height="30" as="geometry" />
        </mxCell>
        <mxCell id="NXLoVm3FzmLXaFAZ10uA-10" value="Imagem da missão" style="whiteSpace=wrap;html=1;aspect=fixed;strokeColor=#000000;fillColor=#FFFF99;" parent="1" vertex="1">
          <mxGeometry x="170" y="390" width="110" height="110" as="geometry" />
        </mxCell>
        <mxCell id="NXLoVm3FzmLXaFAZ10uA-12" value="Nome da missão" style="rounded=0;whiteSpace=wrap;html=1;strokeColor=#000000;fillColor=#FFFF99;" parent="1" vertex="1">
          <mxGeometry x="290" y="390" width="300" height="30" as="geometry" />
        </mxCell>
        <mxCell id="NXLoVm3FzmLXaFAZ10uA-13" value="Descrição da missão" style="rounded=0;whiteSpace=wrap;html=1;strokeColor=#000000;fillColor=#FFFF99;" parent="1" vertex="1">
          <mxGeometry x="290" y="430" width="300" height="120" as="geometry" />
        </mxCell>
        <mxCell id="NXLoVm3FzmLXaFAZ10uA-14" value="Valor de dificuldade" style="rounded=0;whiteSpace=wrap;html=1;strokeColor=#000000;fillColor=#FFFF99;fontSize=11;" parent="1" vertex="1">
          <mxGeometry x="170" y="510" width="110" height="20" as="geometry" />
        </mxCell>
        <mxCell id="NXLoVm3FzmLXaFAZ10uA-15" value="&lt;font style=&quot;font-size: 11px;&quot;&gt;Atributo modificador&lt;/font&gt;" style="rounded=0;whiteSpace=wrap;html=1;strokeColor=#000000;fillColor=#FFFF99;" parent="1" vertex="1">
          <mxGeometry x="170" y="530" width="110" height="20" as="geometry" />
        </mxCell>
        <mxCell id="NXLoVm3FzmLXaFAZ10uA-16" value="Fazer missão" style="rounded=1;whiteSpace=wrap;html=1;strokeColor=#000000;fillColor=#99CCFF;" parent="1" vertex="1">
          <mxGeometry x="170" y="570" width="80" height="30" as="geometry" />
        </mxCell>
        <mxCell id="NXLoVm3FzmLXaFAZ10uA-17" value="" style="endArrow=classic;html=1;rounded=0;fontSize=11;entryX=0;entryY=0.75;entryDx=0;entryDy=0;exitX=0.272;exitY=-0.035;exitDx=0;exitDy=0;exitPerimeter=0;" parent="1" source="NXLoVm3FzmLXaFAZ10uA-18" target="NXLoVm3FzmLXaFAZ10uA-16" edge="1">
          <mxGeometry width="50" height="50" relative="1" as="geometry">
            <mxPoint x="100" y="630" as="sourcePoint" />
            <mxPoint x="90" y="580" as="targetPoint" />
          </mxGeometry>
        </mxCell>
        <mxCell id="NXLoVm3FzmLXaFAZ10uA-18" value="Aqui deve haver a confirmação de que a missão quer ser feita e indicar ao jogador se ele teve sucesso ou não na missão. " style="shape=document;whiteSpace=wrap;html=1;boundedLbl=1;fontSize=11;" parent="1" vertex="1">
          <mxGeometry x="40" y="650" width="270" height="80" as="geometry" />
        </mxCell>
      </root>
    </mxGraphModel>
  </diagram>
</mxfile>
